<svg width="49" height="45" viewBox="0 0 49 45" fill="none" xmlns="http://www.w3.org/2000/svg">
<g clip-path="url(#clip0_645_7003)">
<path d="M37.945 44.7821C37.4099 43.9578 36.7531 42.9637 36.1208 41.9453C35.2694 40.6119 33.8587 40.4421 32.5208 40.2724C30.6966 40.03 28.848 40.1755 27.0723 39.2784C26.6345 39.0602 25.5156 39.8603 24.8589 40.3695C23.9346 41.0968 23.1319 41.218 22.3779 40.4179C21.6969 39.7148 21.6482 38.0176 22.4266 37.4842C23.2779 36.878 23.4239 36.0779 22.8157 35.4233C21.6239 34.1867 21.9644 32.7078 21.9888 31.3016C21.9888 30.3801 22.232 29.4831 22.3779 28.5617C22.5482 27.398 22.1591 26.9131 20.9915 26.9131C19.9456 26.9131 18.8754 26.9858 17.8294 26.9615C17.3673 26.9373 16.8808 26.816 16.4673 26.6221C15.5916 26.2099 15.6159 25.7735 16.3457 25.1189C17.0267 24.4885 17.6591 23.7369 18.0727 22.9367C18.4862 22.1124 18.0727 21.4336 17.1726 21.1668C16.0052 20.8274 15.5187 20.197 15.5187 18.912C15.4943 16.8026 12.8431 14.8872 10.7999 15.4206C10.2162 15.566 9.58373 16.1237 9.26752 16.6814C8.85402 17.4087 8.39187 17.3845 7.9054 17.0208C6.59193 16.0752 5.13251 16.3419 3.69743 16.3176C2.82178 16.3176 2.33531 16.6814 2.31098 17.6027C2.31098 17.9664 2.21368 18.3301 2.04342 18.6453C1.84884 19.0089 1.5083 19.3241 1.21642 19.6636C0.827245 19.2757 0.146185 18.9362 0.121862 18.524C0.000243858 16.8268 0.048891 15.1296 0.0975381 13.4567C0.0975381 13.2385 0.389421 12.8748 0.559686 12.8506C2.57854 12.7293 3.7704 11.2989 5.08387 10.0623C5.7406 9.45615 6.37302 9.16521 7.24866 9.31068C8.07566 9.45616 8.7324 9.33493 9.36481 8.58331C10.8486 6.83763 12.4782 5.21316 14.2052 3.39473C14.9593 4.19484 15.689 4.87372 16.2727 5.67383C16.8808 6.47394 17.6348 6.61941 18.5105 6.47394C19.3861 6.32846 19.4348 5.67383 19.5807 4.94646C19.678 4.51003 20.1644 3.97663 20.578 3.83116C22.0374 3.34624 23.2536 2.71585 23.6671 1.13988C24.786 1.21263 25.0292 1.93999 25.1994 2.71585C25.3697 3.49172 25.321 4.34031 25.54 5.09193C25.7103 5.64959 26.0751 6.42544 26.5129 6.57092C26.9264 6.71639 27.5588 6.1345 28.094 5.84355C28.5805 5.57684 29.0912 5.31014 29.5533 4.99494C30.6722 4.21908 31.8155 3.46747 32.8613 2.61888C33.7371 1.91575 34.4667 1.0429 35.464 0.0488281C36.7045 1.33385 37.872 2.54613 39.0152 3.75842C39.7692 4.58277 40.4503 5.47986 41.2774 6.23147C41.6178 6.54667 42.226 6.71639 42.6881 6.69215C43.661 6.6679 43.8556 7.08008 43.7827 7.92868C43.6853 8.77727 43.7827 9.62587 43.7097 10.4745C43.4422 13.6264 44.8042 16.2207 46.4825 18.718C46.7745 19.1544 47.042 19.5909 47.2852 20.0757C47.8933 21.2638 47.723 22.0639 46.6772 22.9125C46.5312 23.0337 46.3853 23.2034 46.215 23.3005C44.8529 24.149 44.488 24.6582 45.8745 25.9675C46.6285 26.6948 46.8231 27.6162 45.8745 28.4891C45.242 29.0709 45.4123 29.7256 45.4853 30.5257C45.6069 31.7622 45.2664 33.12 44.8042 34.308C43.7584 36.975 44.1231 39.3268 45.8988 41.5332C46.6042 42.4061 47.4069 43.4001 46.6042 44.4426C45.7772 45.5337 44.634 44.8549 43.6124 44.4426C42.5664 44.0305 41.4719 43.4729 40.4017 43.4486C39.6233 43.4244 38.8693 44.2245 37.945 44.7821Z" fill="white" fill-opacity="0.2"/>
</g>
<defs>
<clipPath id="clip0_645_7003">
<rect width="48.0887" height="45" fill="white"/>
</clipPath>
</defs>
</svg>
