<svg width="16" height="14" viewBox="0 0 16 14" fill="none" xmlns="http://www.w3.org/2000/svg">
<path fill-rule="evenodd" clip-rule="evenodd" d="M11.7047 0.25C12.7105 0.25 13.678 0.6475 14.3897 1.36075C15.1022 2.0725 15.5005 3.0325 15.5005 4.0375V9.9625C15.5005 12.055 13.798 13.75 11.7047 13.75H4.29549C2.20224 13.75 0.500488 12.055 0.500488 9.9625V4.0375C0.500488 1.945 2.19474 0.25 4.29549 0.25H11.7047ZM12.898 5.15492L12.958 5.09492C13.1373 4.87742 13.1373 4.56242 12.9498 4.34492C12.8455 4.23317 12.7023 4.16492 12.553 4.14992C12.3955 4.14167 12.2455 4.19492 12.1323 4.29992L8.75051 6.99992C8.31551 7.36067 7.69226 7.36067 7.25051 6.99992L3.87551 4.29992C3.64226 4.12742 3.31976 4.14992 3.12551 4.35242C2.92301 4.55492 2.90051 4.87742 3.07226 5.10242L3.17051 5.19992L6.58301 7.86242C7.00301 8.19242 7.51226 8.37242 8.04551 8.37242C8.57726 8.37242 9.09551 8.19242 9.51476 7.86242L12.898 5.15492Z" fill="white"/>
</svg>
