<svg width="14" height="14" viewBox="0 0 14 14" fill="none" xmlns="http://www.w3.org/2000/svg">
<path d="M6.89852 5.57937C6.58957 5.57937 6.28756 5.67098 6.03068 5.84263C5.7738 6.01427 5.57359 6.25823 5.45536 6.54366C5.33713 6.82909 5.30619 7.14317 5.36647 7.44618C5.42674 7.7492 5.57551 8.02753 5.79397 8.24599C6.01243 8.46445 6.29076 8.61322 6.59378 8.67349C6.89679 8.73377 7.21087 8.70283 7.4963 8.5846C7.78173 8.46637 8.02569 8.26616 8.19733 8.00928C8.36898 7.7524 8.46059 7.45039 8.46059 7.14144C8.46059 6.93631 8.42019 6.73318 8.34168 6.54366C8.26318 6.35414 8.14812 6.18194 8.00307 6.03689C7.85802 5.89184 7.68582 5.77678 7.4963 5.69828C7.30678 5.61977 7.10365 5.57937 6.89852 5.57937ZM13.1531 4.0362C13.1498 3.54979 13.0602 3.06782 12.8886 2.6127C12.7621 2.27966 12.5665 1.97722 12.3146 1.72533C12.0627 1.47344 11.7603 1.27783 11.4273 1.15141C10.9721 0.979747 10.4902 0.890178 10.0038 0.886864C9.19123 0.842773 8.95189 0.842773 6.89852 0.842773C4.84515 0.842773 4.60581 0.842773 3.79328 0.886864C3.30687 0.890178 2.8249 0.979747 2.36978 1.15141C2.03674 1.27783 1.7343 1.47344 1.48241 1.72533C1.23052 1.97722 1.03491 2.27966 0.908488 2.6127C0.736827 3.06782 0.647258 3.54979 0.643944 4.0362C0.599853 4.84873 0.599854 5.08807 0.599854 7.14144C0.599854 9.19481 0.599853 9.43415 0.643944 10.2467C0.650724 10.7348 0.740172 11.2182 0.908488 11.6765C1.03435 12.008 1.2298 12.3087 1.48167 12.5583C1.73248 12.8117 2.03556 13.0073 2.36978 13.1315C2.8249 13.3031 3.30687 13.3927 3.79328 13.396C4.60581 13.4401 4.84515 13.4401 6.89852 13.4401C8.95189 13.4401 9.19123 13.4401 10.0038 13.396C10.4902 13.3927 10.9721 13.3031 11.4273 13.1315C11.7615 13.0073 12.0646 12.8117 12.3154 12.5583C12.5672 12.3087 12.7627 12.008 12.8886 11.6765C13.06 11.2191 13.1496 10.7351 13.1531 10.2467C13.1972 9.43415 13.1972 9.19481 13.1972 7.14144C13.1972 5.08807 13.1972 4.84873 13.1531 4.0362ZM11.5532 9.07513C11.533 9.46382 11.4501 9.84669 11.3076 10.2089C11.1853 10.511 11.0035 10.7855 10.7731 11.016C10.5426 11.2464 10.2681 11.4282 9.96597 11.5505C9.60034 11.685 9.21534 11.7595 8.82591 11.771C8.32832 11.771 8.19605 11.771 6.89852 11.771C5.601 11.771 5.46872 11.771 4.97113 11.771C4.5817 11.7595 4.1967 11.685 3.83107 11.5505C3.51872 11.4344 3.23665 11.2493 3.00594 11.0088C2.77772 10.7829 2.60147 10.5099 2.48945 10.2089C2.35438 9.84364 2.28198 9.4582 2.2753 9.06883C2.2753 8.57124 2.2753 8.43897 2.2753 7.14144C2.2753 5.84391 2.2753 5.71164 2.2753 5.21405C2.28198 4.82468 2.35438 4.43924 2.48945 4.07399C2.60553 3.76164 2.7907 3.47957 3.03114 3.24886C3.2581 3.02187 3.53079 2.84581 3.83107 2.73237C4.1967 2.59784 4.5817 2.52339 4.97113 2.51192C5.46872 2.51192 5.601 2.51192 6.89852 2.51192C8.19605 2.51192 8.32832 2.51192 8.82591 2.51192C9.21534 2.52339 9.60034 2.59784 9.96597 2.73237C10.2783 2.84845 10.5604 3.03362 10.7911 3.27406C11.0193 3.50002 11.1956 3.773 11.3076 4.07399C11.4421 4.43962 11.5166 4.82462 11.528 5.21405C11.528 5.71164 11.528 5.84391 11.528 7.14144C11.528 8.43897 11.5721 8.57124 11.5532 9.06883V9.07513ZM10.5454 4.38892C10.4705 4.18547 10.3522 4.0007 10.1989 3.84737C10.0456 3.69404 9.86079 3.5758 9.65734 3.50081C9.37797 3.40398 9.08375 3.35707 8.78812 3.36224C8.29682 3.36224 8.15825 3.36224 6.89852 3.36224C5.63879 3.36224 5.50022 3.36224 5.00892 3.36224C4.71179 3.36514 4.41752 3.42059 4.1397 3.52601C3.93936 3.59759 3.75655 3.71101 3.60343 3.8587C3.4503 4.0064 3.33036 4.185 3.25159 4.38262C3.16012 4.66315 3.11543 4.95681 3.11932 5.25184C3.11932 5.74314 3.11932 5.88171 3.11932 7.14144C3.11932 8.40117 3.11932 8.53974 3.11932 9.03104C3.12556 9.32783 3.1809 9.62154 3.28309 9.90026C3.35808 10.1037 3.47632 10.2885 3.62965 10.4418C3.78297 10.5951 3.96774 10.7134 4.1712 10.7884C4.43994 10.8872 4.72274 10.9425 5.00892 10.9521C5.50022 10.9521 5.63879 10.9521 6.89852 10.9521C8.15825 10.9521 8.29682 10.9521 8.78812 10.9521C9.08525 10.9492 9.37952 10.8938 9.65734 10.7884C9.86079 10.7134 10.0456 10.5951 10.1989 10.4418C10.3522 10.2885 10.4705 10.1037 10.5454 9.90026C10.6509 9.62244 10.7063 9.32817 10.7092 9.03104C10.7092 8.53974 10.7092 8.40117 10.7092 7.14144C10.7092 5.88171 10.7092 5.74314 10.7092 5.25184C10.7094 4.95442 10.6538 4.65959 10.5454 4.38262V4.38892ZM6.89852 9.54753C6.58284 9.54753 6.27027 9.48525 5.9787 9.36426C5.68713 9.24326 5.4223 9.06593 5.19938 8.84242C4.97646 8.61891 4.79982 8.35362 4.67959 8.06174C4.55936 7.76985 4.4979 7.45711 4.49873 7.14144C4.49873 6.66529 4.64 6.19985 4.90467 5.80404C5.16933 5.40822 5.54549 5.09983 5.98551 4.91791C6.42553 4.73598 6.90964 4.6887 7.37654 4.78205C7.84345 4.8754 8.27216 5.10519 8.60841 5.44232C8.94466 5.77944 9.17332 6.20876 9.26544 6.67591C9.35757 7.14306 9.30902 7.62704 9.12594 8.06658C8.94287 8.50613 8.63349 8.88147 8.23698 9.1451C7.84048 9.40872 7.37467 9.54878 6.89852 9.54753ZM9.41799 5.20775C9.27875 5.19301 9.14989 5.12727 9.05624 5.02318C8.96259 4.91909 8.91078 4.78403 8.91078 4.64402C8.91078 4.504 8.96259 4.36894 9.05624 4.26486C9.14989 4.16077 9.27875 4.09503 9.41799 4.08029C9.55722 4.09503 9.68608 4.16077 9.77973 4.26486C9.87338 4.36894 9.9252 4.504 9.9252 4.64402C9.9252 4.78403 9.87338 4.91909 9.77973 5.02318C9.68608 5.12727 9.55722 5.19301 9.41799 5.20775Z" fill="#9DA8B6"/>
</svg>
