<svg width="14" height="15" viewBox="0 0 14 15" fill="none" xmlns="http://www.w3.org/2000/svg">
<g clip-path="url(#clip0_2041_987)">
<path d="M13.4149 4.3694C13.2607 3.79614 12.8087 3.34427 12.2355 3.1899C11.1884 2.90332 6.99962 2.90332 6.99962 2.90332C6.99962 2.90332 2.81098 2.90332 1.76379 3.17898C1.20166 3.33324 0.738657 3.79624 0.584392 4.3694C0.308838 5.41649 0.308838 7.58804 0.308838 7.58804C0.308838 7.58804 0.308838 9.77052 0.584392 10.8067C0.738759 11.3798 1.19063 11.8318 1.76389 11.9862C2.822 12.2728 6.99972 12.2728 6.99972 12.2728C6.99972 12.2728 11.1884 12.2728 12.2355 11.9971C12.8088 11.8428 13.2607 11.3909 13.415 10.8177C13.6906 9.77052 13.6906 7.59907 13.6906 7.59907C13.6906 7.59907 13.7016 5.41649 13.4149 4.3694Z" fill="#9DA8B6"/>
<path d="M5.66602 9.59437L9.1492 7.5882L5.66602 5.58203V9.59437Z" fill="white"/>
</g>
<defs>
<clipPath id="clip0_2041_987">
<rect width="13.3818" height="13.3818" fill="white" transform="translate(0.308838 0.890625)"/>
</clipPath>
</defs>
</svg>
