<svg width="8" height="14" viewBox="0 0 8 14" fill="none" xmlns="http://www.w3.org/2000/svg">
<path d="M6.90642 0.602273L5.24655 0.599609C3.38174 0.599609 2.17663 1.83603 2.17663 3.74971V5.20211H0.507702C0.363488 5.20211 0.246704 5.31903 0.246704 5.46324V7.56761C0.246704 7.71183 0.363621 7.82861 0.507702 7.82861H2.17663V13.1386C2.17663 13.2828 2.29341 13.3996 2.43762 13.3996H4.61509C4.75931 13.3996 4.87609 13.2827 4.87609 13.1386V7.82861H6.82745C6.97167 7.82861 7.08845 7.71183 7.08845 7.56761L7.08925 5.46324C7.08925 5.394 7.06168 5.32768 7.01281 5.27868C6.96394 5.22968 6.89736 5.20211 6.82812 5.20211H4.87609V3.97089C4.87609 3.37911 5.01711 3.0787 5.78799 3.0787L6.90615 3.0783C7.05023 3.0783 7.16702 2.96138 7.16702 2.8173V0.863272C7.16702 0.719323 7.05036 0.602539 6.90642 0.602273Z" fill="#9DA8B6"/>
</svg>
