<svg width="13" height="10" viewBox="0 0 13 10" fill="none" xmlns="http://www.w3.org/2000/svg">
<path d="M11.1397 8.80806L12.0247 9.65276V9.67958H7.55984V9.65276L8.45817 8.80806C8.55202 8.72762 8.60566 8.60694 8.57884 8.48627V3.05608C8.57884 2.82814 8.57884 2.51976 8.61907 2.2516L5.60229 9.80025H5.56206L2.45143 2.85496C2.38439 2.68066 2.35758 2.66725 2.31735 2.55998V7.10526C2.27713 7.41364 2.33076 7.72202 2.46484 7.99018L3.71177 9.65276V9.67958H0.400024V9.65276L1.64696 7.99018C1.78104 7.72202 1.83467 7.41364 1.79445 7.10526V2.0773C1.82126 1.83596 1.74081 1.58121 1.59333 1.3935L0.708406 0.227011V0.200195H3.88608L6.55425 6.07285L8.90063 0.200195H12.0113V0.227011L11.1397 1.20579C11.0325 1.28623 10.9789 1.42031 11.0057 1.54098V8.47287C10.9789 8.60695 11.0325 8.74102 11.1397 8.80806Z" fill="#9DA8B6"/>
</svg>
