<svg width="14" height="12" viewBox="0 0 14 12" fill="none" xmlns="http://www.w3.org/2000/svg">
<path d="M13.4001 2.031C12.9241 2.2398 12.4169 2.3782 11.8881 2.4454C12.4321 2.1206 12.8473 1.6102 13.0425 0.995005C12.5353 1.2974 11.9753 1.511 11.3785 1.6302C10.8969 1.1174 10.2105 0.799805 9.4617 0.799805C8.0089 0.799805 6.8393 1.979 6.8393 3.4246C6.8393 3.6326 6.8569 3.8326 6.9001 4.023C4.7185 3.9166 2.7881 2.871 1.4913 1.2782C1.2649 1.671 1.1321 2.1206 1.1321 2.6046C1.1321 3.5134 1.6001 4.319 2.2977 4.7854C1.8761 4.7774 1.4625 4.655 1.1121 4.4622C1.1121 4.4702 1.1121 4.4806 1.1121 4.491C1.1121 5.7662 2.0217 6.8254 3.2145 7.0694C3.0009 7.1278 2.7681 7.1558 2.5265 7.1558C2.3585 7.1558 2.1889 7.1462 2.0297 7.111C2.3697 8.1502 3.3345 8.9142 4.4817 8.939C3.5889 9.6374 2.4553 10.0582 1.2281 10.0582C1.0129 10.0582 0.806498 10.0486 0.600098 10.0222C1.7625 10.7718 3.1401 11.1998 4.6257 11.1998C9.4545 11.1998 12.0945 7.1998 12.0945 3.7326C12.0945 3.6166 12.0905 3.5046 12.0849 3.3934C12.6057 3.0238 13.0433 2.5622 13.4001 2.031Z" fill="#9DA8B6"/>
</svg>
